<svg width="104" height="32" viewBox="0 0 104 32" fill="none" xmlns="http://www.w3.org/2000/svg">
<path d="M32 21.3333L16 32L0 21.3333V10.6667L16 0L32 10.6667V21.3333Z" fill="white"/>
<path d="M16 12L10 16L16 20L22 16L16 12Z" fill="#1C71D8" fill-opacity="0.894118"/>
<path d="M4 20V12L16 20V28L4 20Z" fill="url(#paint0_linear_1_42)"/>
<path d="M28 20V12L16 20V28L28 20Z" fill="url(#paint1_linear_1_42)"/>
<path d="M16 12L10 16L4 12L16 4L28 12L22 16L16 12Z" fill="url(#paint2_linear_1_42)"/>
<path d="M44.3057 13.1719C45.1507 13.1719 46.1283 13.4548 47.2383 14.0205L47.4639 13.3867H48.6992V24.666C48.6992 24.8809 48.6921 25.0885 48.6777 25.2891C48.6634 25.4896 48.6204 25.7725 48.5488 26.1377C48.4772 26.5029 48.377 26.8359 48.248 27.1367C48.1191 27.4375 47.9222 27.7598 47.6572 28.1035C47.3994 28.4544 47.0915 28.748 46.7334 28.9844C46.3825 29.2207 45.9242 29.4176 45.3584 29.5752C44.7998 29.7327 44.1732 29.8115 43.4785 29.8115C42.3828 29.8115 41.2871 29.5824 40.1914 29.124L40.6855 27.8457C41.5664 28.1751 42.4222 28.3398 43.2529 28.3398C45.7093 28.3398 46.9375 26.9827 46.9375 24.2686V23.4844C46.0137 23.9714 45.0791 24.2148 44.1338 24.2148C43.6755 24.2148 43.2279 24.154 42.791 24.0322C42.3542 23.9176 41.9245 23.7243 41.502 23.4521C41.0866 23.1729 40.7214 22.8291 40.4062 22.4209C40.0983 22.0055 39.8477 21.4827 39.6543 20.8525C39.4681 20.2152 39.375 19.5062 39.375 18.7256C39.375 17.902 39.4896 17.1608 39.7188 16.502C39.9479 15.8359 40.238 15.3024 40.5889 14.9014C40.9398 14.5003 41.3408 14.1637 41.792 13.8916C42.2503 13.6195 42.6872 13.4333 43.1025 13.333C43.5179 13.2256 43.9189 13.1719 44.3057 13.1719ZM44.4131 14.6006C43.4176 14.6006 42.6156 14.9587 42.0068 15.6748C41.3981 16.391 41.0938 17.3398 41.0938 18.5215C41.0938 19.3092 41.2191 20.0182 41.4697 20.6484C41.7204 21.2786 42.1178 21.7907 42.6621 22.1846C43.2064 22.5713 43.8617 22.7646 44.6279 22.7646C45.4085 22.7646 46.1784 22.5605 46.9375 22.1523V15.2021C45.9564 14.8011 45.1149 14.6006 44.4131 14.6006ZM58.2061 23.8174C57.1676 24.0824 56.3584 24.2148 55.7783 24.2148C55.1982 24.2148 54.7077 24.1217 54.3066 23.9355C53.9056 23.7493 53.6012 23.4844 53.3936 23.1406C53.1859 22.7969 53.0355 22.4281 52.9424 22.0342C52.8564 21.6331 52.8135 21.1748 52.8135 20.6592V14.7725H51.3848V13.3867H52.8135V10.3467H54.5752V13.3867H57.8086V14.7725H54.5752V20.6377C54.5752 22.1058 55.1553 22.8398 56.3154 22.8398C56.5231 22.8398 57.071 22.7646 57.959 22.6143L58.2061 23.8174ZM60.9023 7.76855H62.6641V24H60.9023V7.76855ZM67.5195 13.1719H69.4639L64.8447 17.9521L69.7432 24H67.627L62.8359 18.1348L67.5195 13.1719ZM72.4434 8H74.7559L80.1934 21.2812H80.3809L85.8184 8H88.1309V24H86.3184V11.8438H86.1621L81.1621 24H79.4121L74.4121 11.8438H74.2559V24H72.4434V8ZM92.0156 24V8H93.9531V22.2812H101.391V24H92.0156Z" fill="white"/>
<defs>
<linearGradient id="paint0_linear_1_42" x1="10" y1="12" x2="10" y2="28" gradientUnits="userSpaceOnUse">
<stop stop-color="#DC8ADD"/>
<stop offset="1" stop-color="#F66151"/>
</linearGradient>
<linearGradient id="paint1_linear_1_42" x1="22" y1="12" x2="22" y2="28" gradientUnits="userSpaceOnUse">
<stop stop-color="#F9F06B"/>
<stop offset="1" stop-color="#57E389"/>
</linearGradient>
<linearGradient id="paint2_linear_1_42" x1="16" y1="4" x2="16" y2="16" gradientUnits="userSpaceOnUse">
<stop stop-color="#62A0EA"/>
<stop offset="1" stop-color="#3584E4"/>
</linearGradient>
</defs>
</svg>
