<svg width="120" height="48" viewBox="0 0 120 48" fill="none" xmlns="http://www.w3.org/2000/svg">
<rect x="1" y="1" width="118" height="46" rx="3" fill="#241F31" stroke="black" stroke-width="2"/>
<path d="M40 29.3333L24 40L8 29.3333V18.6667L24 8L40 18.6667V29.3333Z" fill="white"/>
<path d="M24 20L18 24L24 28L30 24L24 20Z" fill="#1C71D8" fill-opacity="0.894118"/>
<path d="M12 28V20L24 28V36L12 28Z" fill="url(#paint0_linear_2_66)"/>
<path d="M36 28V20L24 28V36L36 28Z" fill="url(#paint1_linear_2_66)"/>
<path d="M24 20L18 24L12 20L24 12L36 20L30 24L24 20Z" fill="url(#paint2_linear_2_66)"/>
<path d="M52.3057 21.1719C53.1507 21.1719 54.1283 21.4548 55.2383 22.0205L55.4639 21.3867H56.6992V32.666C56.6992 32.8809 56.6921 33.0885 56.6777 33.2891C56.6634 33.4896 56.6204 33.7725 56.5488 34.1377C56.4772 34.5029 56.377 34.8359 56.248 35.1367C56.1191 35.4375 55.9222 35.7598 55.6572 36.1035C55.3994 36.4544 55.0915 36.748 54.7334 36.9844C54.3825 37.2207 53.9242 37.4176 53.3584 37.5752C52.7998 37.7327 52.1732 37.8115 51.4785 37.8115C50.3828 37.8115 49.2871 37.5824 48.1914 37.124L48.6855 35.8457C49.5664 36.1751 50.4222 36.3398 51.2529 36.3398C53.7093 36.3398 54.9375 34.9827 54.9375 32.2686V31.4844C54.0137 31.9714 53.0791 32.2148 52.1338 32.2148C51.6755 32.2148 51.2279 32.154 50.791 32.0322C50.3542 31.9176 49.9245 31.7243 49.502 31.4521C49.0866 31.1729 48.7214 30.8291 48.4062 30.4209C48.0983 30.0055 47.8477 29.4827 47.6543 28.8525C47.4681 28.2152 47.375 27.5062 47.375 26.7256C47.375 25.902 47.4896 25.1608 47.7188 24.502C47.9479 23.8359 48.238 23.3024 48.5889 22.9014C48.9398 22.5003 49.3408 22.1637 49.792 21.8916C50.2503 21.6195 50.6872 21.4333 51.1025 21.333C51.5179 21.2256 51.9189 21.1719 52.3057 21.1719ZM52.4131 22.6006C51.4176 22.6006 50.6156 22.9587 50.0068 23.6748C49.3981 24.391 49.0938 25.3398 49.0938 26.5215C49.0938 27.3092 49.2191 28.0182 49.4697 28.6484C49.7204 29.2786 50.1178 29.7907 50.6621 30.1846C51.2064 30.5713 51.8617 30.7646 52.6279 30.7646C53.4085 30.7646 54.1784 30.5605 54.9375 30.1523V23.2021C53.9564 22.8011 53.1149 22.6006 52.4131 22.6006ZM66.2061 31.8174C65.1676 32.0824 64.3584 32.2148 63.7783 32.2148C63.1982 32.2148 62.7077 32.1217 62.3066 31.9355C61.9056 31.7493 61.6012 31.4844 61.3936 31.1406C61.1859 30.7969 61.0355 30.4281 60.9424 30.0342C60.8564 29.6331 60.8135 29.1748 60.8135 28.6592V22.7725H59.3848V21.3867H60.8135V18.3467H62.5752V21.3867H65.8086V22.7725H62.5752V28.6377C62.5752 30.1058 63.1553 30.8398 64.3154 30.8398C64.5231 30.8398 65.071 30.7646 65.959 30.6143L66.2061 31.8174ZM68.9023 15.7686H70.6641V32H68.9023V15.7686ZM75.5195 21.1719H77.4639L72.8447 25.9521L77.7432 32H75.627L70.8359 26.1348L75.5195 21.1719ZM80.4434 16H82.7559L88.1934 29.2812H88.3809L93.8184 16H96.1309V32H94.3184V19.8438H94.1621L89.1621 32H87.4121L82.4121 19.8438H82.2559V32H80.4434V16ZM100.016 32V16H101.953V30.2812H109.391V32H100.016Z" fill="white"/>
<defs>
<linearGradient id="paint0_linear_2_66" x1="18" y1="20" x2="18" y2="36" gradientUnits="userSpaceOnUse">
<stop stop-color="#DC8ADD"/>
<stop offset="1" stop-color="#F66151"/>
</linearGradient>
<linearGradient id="paint1_linear_2_66" x1="30" y1="20" x2="30" y2="36" gradientUnits="userSpaceOnUse">
<stop stop-color="#F9F06B"/>
<stop offset="1" stop-color="#57E389"/>
</linearGradient>
<linearGradient id="paint2_linear_2_66" x1="24" y1="12" x2="24" y2="24" gradientUnits="userSpaceOnUse">
<stop stop-color="#62A0EA"/>
<stop offset="1" stop-color="#3584E4"/>
</linearGradient>
</defs>
</svg>
